<svg xmlns="http://www.w3.org/2000/svg"  viewBox="0 0 100 100" width="200px" height="200px"><path d="M51.224,99.994C24.441,99.618,8,81.25,8,67.5 c0-6.749,2.101-10.356,4.325-14.177c2.354-4.04,5.576-9.57,8.852-23.329C25.594,11.44,35.962,2.021,51.991,2 C68.047,2,78.4,11.419,82.823,29.994c3.262,13.698,6.334,19.273,8.577,23.345c2.108,3.826,4.1,7.439,4.1,14.161 c0,13.751-16.443,32.121-43.228,32.494c-0.091,0.004-0.522,0.007-0.522,0.007S51.31,99.998,51.224,99.994z" opacity=".35"/><path fill="#f2f2f2" d="M49.224,97.994C22.441,97.618,6,79.25,6,65.5c0-6.749,2.101-10.356,4.325-14.177 c2.354-4.04,5.576-9.57,8.852-23.329C23.594,9.44,33.962,0.021,49.991,0C66.047,0,76.4,9.419,80.823,27.994 c3.262,13.698,6.334,19.273,8.577,23.345c2.108,3.826,4.1,7.439,4.1,14.161c0,13.751-16.443,32.121-43.228,32.494 c-0.091,0.004-0.522,0.007-0.522,0.007S49.31,97.998,49.224,97.994z"/><path fill="#ff7575" d="M49.5,91.5c22.5,0,37.5-15,37.5-26s-6.094-9.094-12.5-36c-5-21-17.042-23.011-24.5-23 c-7.555,0.011-19.5,2-24.5,23c-6.406,26.906-13,25-13,36s15,26,37.5,26"/><path fill="#dd4f2c" d="M50.058,16c-0.017,0-0.032,0-0.049,0c-4.642,0.007-14.298-3.479-18.672,14.89 c-3.703,15.554-7.618,22.275-10.209,26.724C19.216,60.897,18.5,62.126,18.5,65.5c0,7.372,11.857,20.884,31.25,20.999 C69.143,86.384,81,72.872,81,65.5c0-3.505-0.693-4.765-2.548-8.129c-2.442-4.433-6.135-11.133-9.789-26.481 C64.81,14.704,57.102,16,50.058,16z"/><path fill="none" stroke="#40396e" stroke-linecap="round" stroke-linejoin="round" stroke-miterlimit="10" stroke-width="3" d="M49.5,91.5c22.5,0,37.5-15,37.5-26s-6.094-9.094-12.5-36c-5-21-17.042-23.011-24.5-23c-7.555,0.011-19.5,2-24.5,23 c-6.406,26.906-13,25-13,36s15,26,37.5,26"/><path fill="#ffe8d9" d="M69,32c0-18-19-18-19-18l0,0c0,0-19,0-19,18c-1,20-3,15-3,22s4,10,4,16c0,7,6.421,13.601,11,16 c1.544,0.809,5.487,1,7,1s5.456-0.191,7-1c4.579-2.399,11-9,11-16c0-6,4-9,4-16S70,52,69,32z"/><path fill="#ffc571" d="M69.7,41.321L69.59,41c0,0-0.77-5-5.68-5S52,45,52,50s3,8,3,12s-5,4-5,4s-5,0-5-4 s3-7,3-12s-7-14-11.91-14c-4.91,0-5.68,5-5.68,5l-0.111,0.321C29.276,50.462,28,48.408,28,54c0,7,4,10,4,16c0,7,6.421,13.601,11,16 c1.544,0.809,5.487,1,7,1s5.456-0.191,7-1c4.579-2.399,11-9,11-16c0-6,4-9,4-16C72,48.408,70.724,50.462,69.7,41.321z" opacity=".35"/><path fill="#40396e" d="M65.103,23.768l2.943,1.892C64.207,14.01,50,14,50,14s-14.227,0.01-18.054,11.683l3.082-1.953 c3.005-2.097,7.001-2.413,10-0.307c2.988,2.098,6.967,2.113,9.97,0.037l0.106-0.073C58.118,21.303,62.113,21.649,65.103,23.768z"/><path fill="#40396e" d="M37.008,22.635c-2.427,0.86-6.015,4.649-6.015,9.365c0,0-0.457-8.354,5.206-12.879 C36.199,19.121,37.312,21.786,37.008,22.635z"/><path fill="#40396e" d="M62.98,22.635c2.427,0.86,6.036,4.649,6.036,9.365c0,0,0.436-8.354-5.227-12.879 C63.789,19.121,62.677,21.786,62.98,22.635z"/><path fill="#40396e" d="M45.011,43.845c-0.947,0.398-2.365,0.063-2.829-0.961C40.995,40.269,38.22,36,36.09,36 c-3.408,0-4.792,2.713-5.781,5c0-3,2.075-7.995,6.917-7.995c4.504,0,8.338,5.945,8.728,8.641 C46.09,42.588,45.884,43.479,45.011,43.845z"/><path fill="#40396e" d="M54.986,43.845c0.951,0.398,2.375,0.063,2.841-0.961C59.018,40.269,61.804,36,63.943,36 c3.422,0,4.766,2.713,5.758,5c0-3-2.037-7.995-6.899-7.995c-4.522,0-8.372,5.945-8.764,8.641 C53.902,42.588,54.109,43.479,54.986,43.845z"/><path fill="#fff" d="M33,48c0,0,1.857-4,6.5-4s6.5,6,6.5,6s-2.786,2-6.5,2S33,48,33,48z"/><circle cx="40" cy="48" r="2" fill="#40396e"/><path fill="#fff" d="M67,48c0,0-1.857-4-6.5-4S54,50,54,50s2.786,2,6.5,2S67,48,67,48z"/><circle cx="60" cy="48" r="2" fill="#40396e"/><path fill="#40396e" d="M60.993,60.002c0-1.582,4.007-2.126,4.007-4.897C65,53.225,63,53,63,53s0.997,0.604,0.997,1.463 c0,3.059-4.997,2.478-4.997,5.642c0,2.81,3,3.451,3,4.789C62,65.504,61.504,66,60.895,66H39.105C38.496,66,38,65.504,38,64.894 c0-1.338,3-1.979,3-4.789c0-3.164-4.997-2.583-4.997-5.642C36.003,53.604,37,53,37,53s-2,0.225-2,2.105 c0,2.771,4.007,3.315,4.007,4.897c0,1.767-4.007,1.666-4.007,5.025C35,67.291,36.842,69,39.105,69h21.789 C63.158,69,65,67.291,65,65.027C65,61.668,60.993,61.77,60.993,60.002z"/><path fill="#ff7575" d="M59,77c0,0-3-1-8.989-1C44,76,41,77,41,77s4-4,9-4S59,77,59,77z" opacity=".35"/></svg>